# xmcd
#
# Track frame offsets: 
#        150
#        11843
#        21643
#        37577
#        50229
#        60993
#        73796
#        85983
#        99005
#        110739
#        122441
#        133840
#        144334
#        155394
#        166855
#        178415
#        188156
#        203653
#        216318
#        227061
#        239778
#        252438
#        265396
#        277031
#        288340
#        299706
#        310164
#        321193
#
# Disc length: 4424 seconds
#
# Revision: 0
# Processed by: cddbd v1.5.2PL0 Copyright (c) Steve Scherf et al.
# Submitted via: ExactAudioCopy v0.99pb5
#
DISCID=b111461c
DTITLE=The Beatles  - Rubber Soul [2009 Mono Remaster]
DYEAR=1900
DGENRE=
TTITLE0=Drive My Car
TTITLE1=Norwegian Wood (This Bird Has Flown)
TTITLE2=You Won't See Me
TTITLE3=Nowhere Man
TTITLE4=Think For Yourself
TTITLE5=The Word
TTITLE6=Michelle
TTITLE7=What Goes On
TTITLE8=Girl
TTITLE9=I'm Looking Throuh You
TTITLE10=In My Life
TTITLE11=Wait
TTITLE12=If I Needed Someone
TTITLE13=Run For Your Life
TTITLE14=Drive My Car [1965 Stereo Mix]
TTITLE15=Norwegian Wood (This Bird Has Flown) [1965 Stereo Mix]
TTITLE16=You Won't See Me [1965 Stereo Mix]
TTITLE17=Nowhere Man [1965 Stereo Mix]
TTITLE18=Think For Yourself [1965 Stereo Mix]
TTITLE19=The Word [1965 Stereo Mix]
TTITLE20=Michelle [1965 Stereo Mix]
TTITLE21=What Goes On [1965 Stereo Mix]
TTITLE22=Girl [1965 Stereo Mix]
TTITLE23=I'm Looking Through You [1965 Stereo Mix]
TTITLE24=In My Life [1965 Stereo Mix]
TTITLE25=Wait [1965 Stereo Mix]
TTITLE26=If I Needed Someone [1965 Stereo Mix]
TTITLE27=Run For Your Life [1965 Stereo Mix]
EXTD=
EXTT0=
EXTT1=
EXTT2=
EXTT3=
EXTT4=
EXTT5=
EXTT6=
EXTT7=
EXTT8=
EXTT9=
EXTT10=
EXTT11=
EXTT12=
EXTT13=
EXTT14=
EXTT15=
EXTT16=
EXTT17=
EXTT18=
EXTT19=
EXTT20=
EXTT21=
EXTT22=
EXTT23=
EXTT24=
EXTT25=
EXTT26=
EXTT27=
PLAYORDER=
